<svg width="24" height="24" viewBox="0 0 26 26" fill="none" xmlns="http://www.w3.org/2000/svg">
<path d="M11.2273 4.69352H15.1414L19.4338 0.392527C19.5551 0.270368 19.6994 0.173408 19.8584 0.107239C20.0174 0.0410706 20.1879 0.00700378 20.3602 0.00700378C20.5324 0.00700378 20.7029 0.0410706 20.8619 0.107239C21.0209 0.173408 21.1652 0.270368 21.2865 0.392527L24.6526 3.76816C24.8956 4.01235 25.032 4.34269 25.032 4.68701C25.032 5.03133 24.8956 5.36166 24.6526 5.60586L21.6649 8.60352H11.2273V11.2102C11.2273 11.5559 11.0899 11.8874 10.8452 12.1318C10.6005 12.3762 10.2687 12.5135 9.92262 12.5135C9.5766 12.5135 9.24474 12.3762 9.00007 12.1318C8.75539 11.8874 8.61793 11.5559 8.61793 11.2102V7.30019C8.61793 6.60886 8.89285 5.94584 9.3822 5.457C9.87156 4.96815 10.5353 4.69352 11.2273 4.69352ZM3.39916 11.2102V16.4235L0.411408 19.4082C0.168408 19.6523 0.0320129 19.9827 0.0320129 20.327C0.0320129 20.6713 0.168408 21.0017 0.411408 21.2458L3.77752 24.6215C3.89881 24.7436 4.04311 24.8406 4.2021 24.9068C4.36108 24.9729 4.53162 25.007 4.70385 25.007C4.87609 25.007 5.04662 24.9729 5.20561 24.9068C5.36459 24.8406 5.50889 24.7436 5.63018 24.6215L11.2273 19.0302H16.4461C16.7921 19.0302 17.124 18.8929 17.3686 18.6484C17.6133 18.404 17.7508 18.0725 17.7508 17.7269V16.4235H19.0555C19.4015 16.4235 19.7334 16.2862 19.978 16.0418C20.2227 15.7974 20.3602 15.4659 20.3602 15.1202V13.8169H21.6649C22.0109 13.8169 22.3427 13.6795 22.5874 13.4351C22.8321 13.1907 22.9696 12.8592 22.9696 12.5135V11.2102H13.8367V12.5135C13.8367 13.2049 13.5618 13.8679 13.0724 14.3567C12.5831 14.8456 11.9194 15.1202 11.2273 15.1202H8.61793C7.92588 15.1202 7.26217 14.8456 6.77282 14.3567C6.28346 13.8679 6.00854 13.2049 6.00854 12.5135V8.60352L3.39916 11.2102Z" fill="#FFFBFB"/>
</svg>
